
<svg
  version="1.0"
  xmlns="http://www.w3.org/2000/svg"
  xmlns:xlink="http://www.w3.org/1999/xlink"
  width="2400"
  height="1800"
>
  
  <rect
    x="0"
    y="0"
    width="100%"
    height="100%"
    fill="#ffffff"
    fill-opacity="1"
  ></rect>
  <svg
    version="1.0"
    xmlns="http://www.w3.org/2000/svg"
    xmlns:xlink="http://www.w3.org/1999/xlink"
    x="0"
    y="0"
    width="2400"
    height="1800"
    viewBox="0 0 340.000000 250.000000"
    preserveAspectRatio="xMidYMid meet"
    color-interpolation-filters="sRGB"
  >
    <defs><linearGradient id="92" x1="0%" y1="0%" x2="100%" y2="0%"><stop offset="0%" stop-color="#fa71cd"/> <stop offset="100%" stop-color="#9b59b6"/></linearGradient><linearGradient id="93" x1="0%" y1="0%" x2="100%" y2="0%"><stop offset="0%" stop-color="#f9d423"/> <stop offset="100%" stop-color="#f83600"/></linearGradient><linearGradient id="94" x1="0%" y1="0%" x2="100%" y2="0%"><stop offset="0%" stop-color="#0064d2"/> <stop offset="100%" stop-color="#1cb0f6"/></linearGradient><linearGradient id="95" x1="0%" y1="0%" x2="100%" y2="0%"><stop offset="0%" stop-color="#f00978"/> <stop offset="100%" stop-color="#3f51b1"/></linearGradient><linearGradient id="96" x1="0%" y1="0%" x2="100%" y2="0%"><stop offset="0%" stop-color="#7873f5"/> <stop offset="100%" stop-color="#ec77ab"/></linearGradient><linearGradient id="97" x1="0%" y1="0%" x2="100%" y2="0%"><stop offset="0%" stop-color="#f9d423"/> <stop offset="100%" stop-color="#e14fad"/></linearGradient><linearGradient id="98" x1="0%" y1="0%" x2="100%" y2="0%"><stop offset="0%" stop-color="#009efd"/> <stop offset="100%" stop-color="#2af598"/></linearGradient><linearGradient id="99" x1="0%" y1="0%" x2="100%" y2="0%"><stop offset="0%" stop-color="#ffcc00"/> <stop offset="100%" stop-color="#00b140"/></linearGradient><linearGradient id="100" x1="0%" y1="0%" x2="100%" y2="0%"><stop offset="0%" stop-color="#d51007"/> <stop offset="100%" stop-color="#ff8177"/></linearGradient><linearGradient id="102" x1="0%" y1="0%" x2="100%" y2="0%"><stop offset="0%" stop-color="#a2b6df"/> <stop offset="100%" stop-color="#0c3483"/></linearGradient><linearGradient id="103" x1="0%" y1="0%" x2="100%" y2="0%"><stop offset="0%" stop-color="#7ac5d8"/> <stop offset="100%" stop-color="#eea2a2"/></linearGradient><linearGradient id="104" x1="0%" y1="0%" x2="100%" y2="0%"><stop offset="0%" stop-color="#00ecbc"/> <stop offset="100%" stop-color="#007adf"/></linearGradient><linearGradient id="105" x1="0%" y1="0%" x2="100%" y2="0%"><stop offset="0%" stop-color="#b88746"/> <stop offset="100%" stop-color="#fdf5a6"/></linearGradient></defs> <g class="imagesvg isNoFont" transform="translate(67.4000015258789,43.5125732421875)"><g mask="url(#53b892b7-6441-462c-8135-6da33a235d9a)"><rect fill="#6a12cb" fill-opacity="0" stroke-width="2" x="0" y="0" width="205.20000000000013" height="162.97484691324695" class="image-rect"/> <svg x="0" y="0" width="205.20000000000013" height="162.97484691324695" filtersec="colorsb9383309615" class="image-svg-svg primary" style="overflow: visible;"><svg xmlns="http://www.w3.org/2000/svg" viewBox="527.7381591796875 598.0115356445312 992.376708984375 788.1685180664062" preserveAspectRatio="none" display="block"><defs><linearGradient id="7d0d6c85-20e1-4fe1-8d1f-55c52ae59faf" gradientUnits="userSpaceOnUse" x1="1189.49" y1="984.488" x2="528.438" y2="978.392"><stop class="stop0" offset="0" stop-opacity="1" stop-color="rgb(251,124,21)"/><stop class="stop1" offset="1" stop-opacity="1" stop-color="rgb(255,151,35)"/></linearGradient></defs><path fill="url(#7d0d6c85-20e1-4fe1-8d1f-55c52ae59faf)" d="M 862.509 602.233 C 863.958 602.179 868.947 601.888 869.89 602.652 C 889.211 618.313 909.661 630.57 930.747 643.724 L 1123.44 762.496 C 1134.53 769.199 1185.77 796.517 1189.39 805.68 C 1189.52 806.028 1189.63 806.388 1189.76 806.74 C 1191.02 810.19 1191.22 813.506 1191.31 817.148 C 1191.86 838.901 1191.14 860.848 1191.02 882.617 L 1190.72 997.953 C 1190.71 1019.25 1193.54 1137.54 1189.32 1150.69 C 1185.99 1161.04 1180.31 1168.98 1172.23 1176.11 C 1160.89 1186.12 1147.89 1193.29 1135.06 1201.16 C 1123.98 1207.96 1113.1 1215.13 1102.14 1222.13 C 1078.07 1237.51 1054.41 1253.61 1030.18 1268.71 C 1017.07 1276.88 1003.27 1284.05 990.022 1292.03 C 970.681 1303.67 951.856 1315.79 932.03 1326.67 C 917.146 1334.84 879.339 1357.52 865.764 1361.11 C 863.353 1361.75 861.054 1361.11 858.725 1360.44 C 837.428 1350.13 802.807 1328.46 782.065 1315.68 L 685.36 1256.61 C 636.691 1226.98 586.935 1199.01 538.496 1168.96 C 534.928 1166.75 532.585 1164.29 529.982 1161.05 L 529.843 1160.32 C 527.22 1147.46 528.177 1129.31 528.14 1115.77 L 528.04 1041.11 L 527.995 896.266 C 527.996 871.092 527.316 845.703 528.165 820.55 C 528.35 815.088 527.964 806.649 531.257 802.11 C 531.496 801.78 531.764 801.472 532.009 801.146 C 539.874 790.678 605.752 756.393 619.981 748.096 C 669.928 718.351 719.214 687.511 767.803 655.597 C 790.322 641.12 812.852 626.485 835.757 612.538 C 843.337 607.922 854.062 604.743 862.509 602.233 z M 740.596 725.155 C 694.954 749.069 647.468 771.902 601.757 795.897 C 591.954 801.043 557.726 816.629 551.775 821.63 C 594.731 841.394 640.929 856.801 682.842 876.377 C 678.464 889.741 667.11 907.529 660.521 920.739 C 635.816 969.688 610.165 1018.15 583.581 1066.11 C 564.922 1099.6 517.607 1156.44 588.351 1158.34 C 607.033 1158.84 625.878 1158.8 644.558 1158.95 C 687.103 1159.27 729.649 1159.29 772.195 1158.99 C 782.731 1158.94 844.45 1157.51 848.593 1160.42 C 850.212 1166.26 850.407 1179.95 849.965 1186.47 C 849.245 1197.1 850.995 1211.69 849.462 1221.86 C 846.889 1238.94 846.26 1253.73 845.63 1270.96 C 845.075 1286.13 841.97 1297.67 843.829 1313.38 C 848.117 1318.27 849.898 1320.43 855.998 1322.84 C 878.438 1321.84 882.871 1308.56 882.906 1288.56 C 882.936 1271.66 885.438 1254.72 885.942 1237.84 C 887.14 1212.07 885.499 1184.75 888.102 1159.19 C 900.49 1160.06 912.987 1158.74 925.402 1159 C 939.945 1159.31 954.68 1160.82 969.209 1161.06 C 1015.55 1162.02 1061.91 1161.05 1108.16 1158.16 C 1122.17 1157.38 1137.51 1158.03 1151.23 1155.53 C 1154.94 1154.85 1157.79 1153.93 1160.63 1151.33 C 1164.38 1147.88 1167.86 1142.34 1168.08 1137.11 C 1168.4 1129.77 1163.41 1119.81 1160.33 1113.27 C 1148.56 1088.3 1134.06 1064.26 1120.87 1040 C 1095.41 993.158 1069.89 945.808 1046.44 897.921 C 1044.47 893.895 1037.6 881.477 1041.19 877.806 C 1052.75 865.984 1163.29 834.186 1166.63 824.269 C 1162.79 817.679 998.043 736.257 979.441 725.826 C 983.922 735.582 998.634 767.882 1004.5 774.892 C 1012.46 784.398 1079.95 809.817 1082.05 820.952 C 1077.3 826.268 1028.84 841.439 1017.69 846.216 C 1003.35 833.365 983.956 799.895 972.074 781.939 L 902.837 677.368 C 894.029 664.043 885.289 648.637 874.842 636.667 C 871.031 632.3 861.664 631.777 856.18 632.144 C 844.042 634.986 842.288 637.195 835.895 648.18 C 815.148 683.828 791.071 717.216 768.476 751.714 C 747.937 783.072 727.643 815.501 705.503 845.773 C 687.565 839.613 651.298 825.838 634.674 817.961 C 639.189 815.845 644.779 813.244 648.832 810.452 C 670.141 795.777 698.593 787.481 718.538 771.424 C 724.145 766.911 735.893 738.44 738.794 730.373 C 739.416 728.641 740.017 726.902 740.596 725.155 z M 967.53 1207.47 C 959.438 1225.64 949.825 1243.51 941.094 1261.38 C 938.84 1265.99 930.197 1280.68 929.505 1284.52 C 932.66 1284.91 933.031 1283.88 936.5 1282 C 973.911 1259.41 1011.6 1236.89 1047.68 1212.14 C 1052.82 1208.61 1057.93 1205.08 1062.85 1201.24 C 1059.47 1201.38 1054.55 1201.73 1051.3 1201.44 C 1033.8 1204.2 1013.21 1204.12 995.503 1205.17 C 985.948 1205.74 977.026 1206.76 967.53 1207.47 z M 1150.78 880.38 C 1146.35 882.412 1110.04 904.911 1107.5 907.384 C 1111.5 921.102 1115.07 936.161 1121.65 948.907 C 1128.23 961.629 1133.05 977.478 1140.27 989.59 C 1144.65 999.021 1148.11 1006.93 1153.76 1015.73 C 1152.57 1001.19 1157.69 887.456 1154.51 882.073 C 1154.18 881.522 1153.54 881.234 1153.06 880.815 L 1150.78 880.38 z M 799.069 1278.42 C 781.228 1250.86 761.839 1225.12 743.523 1198.24 C 718.676 1198.99 686.674 1199.19 661.897 1198.17 C 669.94 1207.35 783.789 1275.14 797.5 1279.79 C 798.023 1279.34 798.546 1278.88 799.069 1278.42 z M 582.066 978.48 C 591.12 960.688 607.22 922.109 611.214 902.594 C 605.719 897.82 569.08 867.191 564.304 864.574 C 563.329 911.13 563.951 964.585 564.21 1011.58 C 570.26 1000.64 576.5 989.66 582.066 978.48 z"/><path fill="#E8B830" d="M773.248 883.419C794.477 881.398 842.051 884.027 864.501 884.266 903.76 884.684 946.838 881.969 985.313 884.631 961.161 949.71 936.94 991.055 902.905 1049.74 896.624 1060.28 878.543 1093.69 871.785 1101.01 866.19 1094.49 857.966 1080.32 853.235 1072.62L824.348 1025.64 769.803 937.569C759.527 920.853 747.231 901.837 738.271 884.621 749.063 883.742 761.556 884.243 773.248 883.419zM709.172 908.581C748.885 967.884 785.038 1031.45 823.736 1091.54 829.961 1101.21 836.211 1111.7 841.595 1121.85 823.889 1122.9 807.105 1121.91 789.758 1122.58 769.166 1123.37 753.902 1123.55 733.079 1122.31 687.798 1121.99 643.323 1122.79 598.015 1121.63 602.783 1105.15 615.021 1083.07 623.316 1067.41L660.89 997.055 690.463 941.279C695.545 931.783 702.952 916.908 709.172 908.581zM1012.6 916.5C1019.13 920.53 1040.38 963.234 1045.32 972.564 1057.45 994.984 1069.4 1017.5 1081.16 1040.12 1094.9 1066.34 1111.27 1094.48 1123.76 1121.02 1118.54 1121.41 1113.34 1121.86 1108.13 1122.31 1076.52 1125.03 1044.5 1123.97 1012.75 1123.62 985.596 1123.03 958.975 1125.05 931.922 1123.93 922.501 1123.53 913.004 1122.88 903.586 1122.31 917.065 1094.91 932.197 1072.08 947.082 1045.86 969.548 1006.29 995.189 958.527 1012.6 916.5zM860.682 681.629C867.175 687.461 889.209 720.703 895.538 730.416 920.232 768.309 948.403 807.501 970.942 846.456 933.41 848.426 897.057 848.033 859.5 848.083 836.958 848.266 814.416 848.324 791.873 848.255 779.62 848.211 761.374 848.612 749.725 846.683L814.822 745.87C827.054 727.249 846.221 696.709 860.682 681.629z"/><path fill="#2e6cd8" d="M 961.679 598.443 C 970.987 598.08 979.938 598.08 989.233 598.069 L 1201.16 598.082 L 1259.63 598.117 C 1274.38 598.129 1289.61 597.329 1304.18 599.957 C 1314.79 601.872 1325.95 608.425 1334.48 614.963 C 1366.5 639.506 1353.57 661.09 1370.46 678.782 C 1382.56 691.456 1396.2 703.008 1409.07 714.917 L 1457.49 760.387 C 1474.26 775.857 1491.3 791.44 1507.7 807.268 C 1512.61 812.664 1517.9 816.792 1518.79 824.48 C 1520.63 840.324 1520.01 856.858 1520.03 872.814 L 1520.07 961.205 L 1520 1274.44 C 1519.86 1307.75 1517.27 1333.86 1492.52 1358.21 C 1461.53 1388.69 1428.07 1385.78 1388.48 1386 L 1286.56 1386.1 L 936.882 1385.84 C 925.995 1385.7 915.107 1385.82 904.225 1386.18 L 975.589 1349.29 C 982.924 1345.45 1017.61 1326.38 1023.22 1325.82 C 1044.05 1323.72 1076.67 1324.95 1098.42 1324.95 L 1329.56 1324.84 C 1348.29 1324.78 1367.02 1324.83 1385.75 1324.99 C 1412.59 1325.15 1448.16 1328.94 1453.33 1290.59 C 1455.35 1275.59 1454.17 1257.74 1454.16 1242.42 L 1454.05 1157.82 L 1454.04 869.213 C 1414.02 869.54 1373.99 869.611 1333.97 869.427 C 1313.84 869.459 1293.51 870.093 1273.45 869.279 C 1269.23 869.108 1260.33 865.421 1258.77 861.537 C 1255.16 852.539 1256.43 840.551 1256.41 831.148 C 1256.33 795.35 1256.45 759.644 1256.29 723.865 C 1256.19 703.628 1256.8 683.043 1255.87 662.867 C 1232.34 663.997 1052.57 665.01 1041.91 661.382 C 1027.09 656.338 1011.96 645.798 998.265 638.036 C 975.264 624.996 952.096 612.344 929.329 598.888 C 940.562 598.985 950.437 598.99 961.679 598.443 z"/><path fill="#337be5" d="M 1321.1 724.058 C 1328.21 725.621 1412.6 805.218 1413.6 812.994 C 1383.83 814.119 1351.38 813.237 1321.19 813.564 C 1320.58 785.593 1319.7 751.574 1321.1 724.058 z"/><path fill="#2e6cd8" d="M1256.05 968.487C1271.62 967.582 1383.6 966.588 1390.39 969.967 1394.41 971.965 1396.79 976.698 1397.99 980.822 1399.74 986.848 1400.93 998.955 1397.16 1004.47 1394.85 1007.86 1392.01 1008.46 1388.25 1009.11 1353.51 1010.01 1318 1008.97 1283.16 1010.07 1254.61 1010.97 1238.92 1011.56 1246.26 976.4 1246.97 972.981 1253.22 969.784 1256.05 968.487zM1258.32 1066.22C1274.25 1066.12 1386.72 1064.02 1394.05 1068.93 1396.98 1070.9 1398.28 1076.13 1398.77 1079.35 1399.66 1085.14 1400.77 1098.79 1396.66 1103.29 1393.86 1106.35 1389.86 1106.98 1385.95 1107.29 1369.57 1108.34 1262.97 1109.49 1251.38 1105.13 1248.87 1104.19 1247.43 1102.69 1246.39 1100.24 1244.12 1094.91 1244.4 1079.71 1246.98 1074.45 1249.4 1069.54 1253.39 1067.9 1258.32 1066.22z"/></svg><rect v-gra="id" width="217.1999969482422" height="174.974853515625" transform="translate(-6, -6)" style="pointer-events:none;" fill="url(#WOL7TE8unnp01XPbYikA-)"/></svg> </g></g><defs v-gra="od"/><defs v-gra="id"><filter id="949d9609-7715-44f8-af58-3a22707c3243" filterUnits="userSpaceOnUse"><feColorMatrix type="matrix" values="0 0 0 0 0.99609375  0 0 0 0 0.99609375  0 0 0 0 0.99609375  0 0 0 1 0"/></filter><linearGradient x1="0" y1="1" x2="0" y2="0" id="WOL7TE8unnp01XPbYikA-"><stop offset="0%" stop-color="#6a12cb"/><stop offset="100%" stop-color="#2575fc"/></linearGradient><filter id="42443b3f1de60f6b6fd3b6a9844b4764" filterUnits="objectBoundingBox"><feColorMatrix type="matrix" values="0 0 0 0 0.99609375  0 0 0 0 0.99609375  0 0 0 0 0.99609375  0 0 0 1 0"/></filter></defs><mask v-gra="im" id="53b892b7-6441-462c-8135-6da33a235d9a"><svg x="0" y="0" width="205.20000000000013" height="162.97484691324695" filtersec="colorsb9383309615" class="image-svg-svg primary" style="overflow: visible;" filter="url(#949d9609-7715-44f8-af58-3a22707c3243)"><svg xmlns="http://www.w3.org/2000/svg" viewBox="527.7381591796875 598.0115356445312 992.376708984375 788.1685180664062" preserveAspectRatio="none" display="block"><defs><linearGradient id="7d0d6c85-20e1-4fe1-8d1f-55c52ae59faf" gradientUnits="userSpaceOnUse" x1="1189.49" y1="984.488" x2="528.438" y2="978.392"><stop class="stop0" offset="0" stop-opacity="1" stop-color="rgb(251,124,21)"/><stop class="stop1" offset="1" stop-opacity="1" stop-color="rgb(255,151,35)"/></linearGradient></defs><path fill="url(#7d0d6c85-20e1-4fe1-8d1f-55c52ae59faf)" d="M 862.509 602.233 C 863.958 602.179 868.947 601.888 869.89 602.652 C 889.211 618.313 909.661 630.57 930.747 643.724 L 1123.44 762.496 C 1134.53 769.199 1185.77 796.517 1189.39 805.68 C 1189.52 806.028 1189.63 806.388 1189.76 806.74 C 1191.02 810.19 1191.22 813.506 1191.31 817.148 C 1191.86 838.901 1191.14 860.848 1191.02 882.617 L 1190.72 997.953 C 1190.71 1019.25 1193.54 1137.54 1189.32 1150.69 C 1185.99 1161.04 1180.31 1168.98 1172.23 1176.11 C 1160.89 1186.12 1147.89 1193.29 1135.06 1201.16 C 1123.98 1207.96 1113.1 1215.13 1102.14 1222.13 C 1078.07 1237.51 1054.41 1253.61 1030.18 1268.71 C 1017.07 1276.88 1003.27 1284.05 990.022 1292.03 C 970.681 1303.67 951.856 1315.79 932.03 1326.67 C 917.146 1334.84 879.339 1357.52 865.764 1361.11 C 863.353 1361.75 861.054 1361.11 858.725 1360.44 C 837.428 1350.13 802.807 1328.46 782.065 1315.68 L 685.36 1256.61 C 636.691 1226.98 586.935 1199.01 538.496 1168.96 C 534.928 1166.75 532.585 1164.29 529.982 1161.05 L 529.843 1160.32 C 527.22 1147.46 528.177 1129.31 528.14 1115.77 L 528.04 1041.11 L 527.995 896.266 C 527.996 871.092 527.316 845.703 528.165 820.55 C 528.35 815.088 527.964 806.649 531.257 802.11 C 531.496 801.78 531.764 801.472 532.009 801.146 C 539.874 790.678 605.752 756.393 619.981 748.096 C 669.928 718.351 719.214 687.511 767.803 655.597 C 790.322 641.12 812.852 626.485 835.757 612.538 C 843.337 607.922 854.062 604.743 862.509 602.233 z M 740.596 725.155 C 694.954 749.069 647.468 771.902 601.757 795.897 C 591.954 801.043 557.726 816.629 551.775 821.63 C 594.731 841.394 640.929 856.801 682.842 876.377 C 678.464 889.741 667.11 907.529 660.521 920.739 C 635.816 969.688 610.165 1018.15 583.581 1066.11 C 564.922 1099.6 517.607 1156.44 588.351 1158.34 C 607.033 1158.84 625.878 1158.8 644.558 1158.95 C 687.103 1159.27 729.649 1159.29 772.195 1158.99 C 782.731 1158.94 844.45 1157.51 848.593 1160.42 C 850.212 1166.26 850.407 1179.95 849.965 1186.47 C 849.245 1197.1 850.995 1211.69 849.462 1221.86 C 846.889 1238.94 846.26 1253.73 845.63 1270.96 C 845.075 1286.13 841.97 1297.67 843.829 1313.38 C 848.117 1318.27 849.898 1320.43 855.998 1322.84 C 878.438 1321.84 882.871 1308.56 882.906 1288.56 C 882.936 1271.66 885.438 1254.72 885.942 1237.84 C 887.14 1212.07 885.499 1184.75 888.102 1159.19 C 900.49 1160.06 912.987 1158.74 925.402 1159 C 939.945 1159.31 954.68 1160.82 969.209 1161.06 C 1015.55 1162.02 1061.91 1161.05 1108.16 1158.16 C 1122.17 1157.38 1137.51 1158.03 1151.23 1155.53 C 1154.94 1154.85 1157.79 1153.93 1160.63 1151.33 C 1164.38 1147.88 1167.86 1142.34 1168.08 1137.11 C 1168.4 1129.77 1163.41 1119.81 1160.33 1113.27 C 1148.56 1088.3 1134.06 1064.26 1120.87 1040 C 1095.41 993.158 1069.89 945.808 1046.44 897.921 C 1044.47 893.895 1037.6 881.477 1041.19 877.806 C 1052.75 865.984 1163.29 834.186 1166.63 824.269 C 1162.79 817.679 998.043 736.257 979.441 725.826 C 983.922 735.582 998.634 767.882 1004.5 774.892 C 1012.46 784.398 1079.95 809.817 1082.05 820.952 C 1077.3 826.268 1028.84 841.439 1017.69 846.216 C 1003.35 833.365 983.956 799.895 972.074 781.939 L 902.837 677.368 C 894.029 664.043 885.289 648.637 874.842 636.667 C 871.031 632.3 861.664 631.777 856.18 632.144 C 844.042 634.986 842.288 637.195 835.895 648.18 C 815.148 683.828 791.071 717.216 768.476 751.714 C 747.937 783.072 727.643 815.501 705.503 845.773 C 687.565 839.613 651.298 825.838 634.674 817.961 C 639.189 815.845 644.779 813.244 648.832 810.452 C 670.141 795.777 698.593 787.481 718.538 771.424 C 724.145 766.911 735.893 738.44 738.794 730.373 C 739.416 728.641 740.017 726.902 740.596 725.155 z M 967.53 1207.47 C 959.438 1225.64 949.825 1243.51 941.094 1261.38 C 938.84 1265.99 930.197 1280.68 929.505 1284.52 C 932.66 1284.91 933.031 1283.88 936.5 1282 C 973.911 1259.41 1011.6 1236.89 1047.68 1212.14 C 1052.82 1208.61 1057.93 1205.08 1062.85 1201.24 C 1059.47 1201.38 1054.55 1201.73 1051.3 1201.44 C 1033.8 1204.2 1013.21 1204.12 995.503 1205.17 C 985.948 1205.74 977.026 1206.76 967.53 1207.47 z M 1150.78 880.38 C 1146.35 882.412 1110.04 904.911 1107.5 907.384 C 1111.5 921.102 1115.07 936.161 1121.65 948.907 C 1128.23 961.629 1133.05 977.478 1140.27 989.59 C 1144.65 999.021 1148.11 1006.93 1153.76 1015.73 C 1152.57 1001.19 1157.69 887.456 1154.51 882.073 C 1154.18 881.522 1153.54 881.234 1153.06 880.815 L 1150.78 880.38 z M 799.069 1278.42 C 781.228 1250.86 761.839 1225.12 743.523 1198.24 C 718.676 1198.99 686.674 1199.19 661.897 1198.17 C 669.94 1207.35 783.789 1275.14 797.5 1279.79 C 798.023 1279.34 798.546 1278.88 799.069 1278.42 z M 582.066 978.48 C 591.12 960.688 607.22 922.109 611.214 902.594 C 605.719 897.82 569.08 867.191 564.304 864.574 C 563.329 911.13 563.951 964.585 564.21 1011.58 C 570.26 1000.64 576.5 989.66 582.066 978.48 z"/><path fill="#E8B830" d="M773.248 883.419C794.477 881.398 842.051 884.027 864.501 884.266 903.76 884.684 946.838 881.969 985.313 884.631 961.161 949.71 936.94 991.055 902.905 1049.74 896.624 1060.28 878.543 1093.69 871.785 1101.01 866.19 1094.49 857.966 1080.32 853.235 1072.62L824.348 1025.64 769.803 937.569C759.527 920.853 747.231 901.837 738.271 884.621 749.063 883.742 761.556 884.243 773.248 883.419zM709.172 908.581C748.885 967.884 785.038 1031.45 823.736 1091.54 829.961 1101.21 836.211 1111.7 841.595 1121.85 823.889 1122.9 807.105 1121.91 789.758 1122.58 769.166 1123.37 753.902 1123.55 733.079 1122.31 687.798 1121.99 643.323 1122.79 598.015 1121.63 602.783 1105.15 615.021 1083.07 623.316 1067.41L660.89 997.055 690.463 941.279C695.545 931.783 702.952 916.908 709.172 908.581zM1012.6 916.5C1019.13 920.53 1040.38 963.234 1045.32 972.564 1057.45 994.984 1069.4 1017.5 1081.16 1040.12 1094.9 1066.34 1111.27 1094.48 1123.76 1121.02 1118.54 1121.41 1113.34 1121.86 1108.13 1122.31 1076.52 1125.03 1044.5 1123.97 1012.75 1123.62 985.596 1123.03 958.975 1125.05 931.922 1123.93 922.501 1123.53 913.004 1122.88 903.586 1122.31 917.065 1094.91 932.197 1072.08 947.082 1045.86 969.548 1006.29 995.189 958.527 1012.6 916.5zM860.682 681.629C867.175 687.461 889.209 720.703 895.538 730.416 920.232 768.309 948.403 807.501 970.942 846.456 933.41 848.426 897.057 848.033 859.5 848.083 836.958 848.266 814.416 848.324 791.873 848.255 779.62 848.211 761.374 848.612 749.725 846.683L814.822 745.87C827.054 727.249 846.221 696.709 860.682 681.629z"/><path fill="#2e6cd8" d="M 961.679 598.443 C 970.987 598.08 979.938 598.08 989.233 598.069 L 1201.16 598.082 L 1259.63 598.117 C 1274.38 598.129 1289.61 597.329 1304.18 599.957 C 1314.79 601.872 1325.95 608.425 1334.48 614.963 C 1366.5 639.506 1353.57 661.09 1370.46 678.782 C 1382.56 691.456 1396.2 703.008 1409.07 714.917 L 1457.49 760.387 C 1474.26 775.857 1491.3 791.44 1507.7 807.268 C 1512.61 812.664 1517.9 816.792 1518.79 824.48 C 1520.63 840.324 1520.01 856.858 1520.03 872.814 L 1520.07 961.205 L 1520 1274.44 C 1519.86 1307.75 1517.27 1333.86 1492.52 1358.21 C 1461.53 1388.69 1428.07 1385.78 1388.48 1386 L 1286.56 1386.1 L 936.882 1385.84 C 925.995 1385.7 915.107 1385.82 904.225 1386.18 L 975.589 1349.29 C 982.924 1345.45 1017.61 1326.38 1023.22 1325.82 C 1044.05 1323.72 1076.67 1324.95 1098.42 1324.95 L 1329.56 1324.84 C 1348.29 1324.78 1367.02 1324.83 1385.75 1324.99 C 1412.59 1325.15 1448.16 1328.94 1453.33 1290.59 C 1455.35 1275.59 1454.17 1257.74 1454.16 1242.42 L 1454.05 1157.82 L 1454.04 869.213 C 1414.02 869.54 1373.99 869.611 1333.97 869.427 C 1313.84 869.459 1293.51 870.093 1273.45 869.279 C 1269.23 869.108 1260.33 865.421 1258.77 861.537 C 1255.16 852.539 1256.43 840.551 1256.41 831.148 C 1256.33 795.35 1256.45 759.644 1256.29 723.865 C 1256.19 703.628 1256.8 683.043 1255.87 662.867 C 1232.34 663.997 1052.57 665.01 1041.91 661.382 C 1027.09 656.338 1011.96 645.798 998.265 638.036 C 975.264 624.996 952.096 612.344 929.329 598.888 C 940.562 598.985 950.437 598.99 961.679 598.443 z"/><path fill="#337be5" d="M 1321.1 724.058 C 1328.21 725.621 1412.6 805.218 1413.6 812.994 C 1383.83 814.119 1351.38 813.237 1321.19 813.564 C 1320.58 785.593 1319.7 751.574 1321.1 724.058 z"/><path fill="#2e6cd8" d="M1256.05 968.487C1271.62 967.582 1383.6 966.588 1390.39 969.967 1394.41 971.965 1396.79 976.698 1397.99 980.822 1399.74 986.848 1400.93 998.955 1397.16 1004.47 1394.85 1007.86 1392.01 1008.46 1388.25 1009.11 1353.51 1010.01 1318 1008.97 1283.16 1010.07 1254.61 1010.97 1238.92 1011.56 1246.26 976.4 1246.97 972.981 1253.22 969.784 1256.05 968.487zM1258.32 1066.22C1274.25 1066.12 1386.72 1064.02 1394.05 1068.93 1396.98 1070.9 1398.28 1076.13 1398.77 1079.35 1399.66 1085.14 1400.77 1098.79 1396.66 1103.29 1393.86 1106.35 1389.86 1106.98 1385.95 1107.29 1369.57 1108.34 1262.97 1109.49 1251.38 1105.13 1248.87 1104.19 1247.43 1102.69 1246.39 1100.24 1244.12 1094.91 1244.4 1079.71 1246.98 1074.45 1249.4 1069.54 1253.39 1067.9 1258.32 1066.22z"/></svg></svg></mask>
  </svg>
</svg>


